<?xml version="1.0" standalone="no"?>
<!DOCTYPE svg PUBLIC "-//W3C//DTD SVG 1.1//EN" "http://www.w3.org/Graphics/SVG/1.1/DTD/svg11.dtd">
<svg xmlns="http://www.w3.org/2000/svg" xmlns:xlink="http://www.w3.org/1999/xlink" version="1.1" id="Layer_1" x="0px" y="0px" width="50" viewBox="0 0 50 50" enable-background="new 0 0 50 50" xml:space="preserve" height="50">
<path fill="#F8F8F8" opacity="1.000000" stroke="none" d=" M36.011639,51.000000   C24.009508,51.000000 12.509784,51.000000 1.007545,51.000000   C1.005030,34.337090 1.005030,17.674175 1.002514,1.008446   C17.662512,1.005631 34.325024,1.005631 50.990654,1.002814   C50.993767,17.662109 50.993767,34.324223 50.993767,51.000000   C46.171352,51.000000 41.342701,51.000000 36.011639,51.000000  M47.652126,18.179802   C42.367989,6.111847 32.781471,1.126934 20.274216,3.943501   C10.822659,6.071941 4.145823,14.099097 3.042485,24.660164   C2.153063,33.173649 7.920190,43.349106 16.116394,46.996529   C24.692060,50.812809 33.044777,50.273067 40.417503,44.095585   C48.363983,37.437382 50.572006,28.864872 47.652126,18.179802  z"/>
<path fill="#171717" opacity="1.000000" stroke="none" d=" M47.781788,18.561466   C50.572006,28.864872 48.363983,37.437382 40.417503,44.095585   C33.044777,50.273067 24.692060,50.812809 16.116394,46.996529   C7.920190,43.349106 2.153063,33.173649 3.042485,24.660164   C4.145823,14.099097 10.822659,6.071941 20.274216,3.943501   C32.781471,1.126934 42.367989,6.111847 47.781788,18.561466  M20.587727,36.295101   C26.190401,32.999893 31.793074,29.704689 37.977409,26.067381   C30.857159,21.929775 24.391998,18.172846 17.387196,14.102330   C17.387196,22.464415 17.387196,29.892841 17.387196,37.881729   C18.339863,37.550625 19.234158,37.239807 20.587727,36.295101  z"/>
<path fill="#F1F1F1" opacity="1.000000" stroke="none" d=" M20.358089,36.612045   C19.234158,37.239807 18.339863,37.550625 17.387196,37.881729   C17.387196,29.892841 17.387196,22.464415 17.387196,14.102330   C24.391998,18.172846 30.857159,21.929775 37.977409,26.067381   C31.793074,29.704689 26.190401,32.999893 20.358089,36.612045  z"/>
</svg>